<?xml version="1.0" encoding="UTF-8"?>
<svg id="Layer_1" xmlns="http://www.w3.org/2000/svg" version="1.1" viewBox="0 0 160 160">
  <!-- Generator: Adobe Illustrator 30.1.0, SVG Export Plug-In . SVG Version: 2.1.1 Build 136)  -->
  <defs>
    <style>
      .st0 {
        fill: #1c6d2d;
      }

      .st1 {
        fill: #36a93f;
      }

      .st2 {
        fill: #11356f;
      }

      .st3 {
        fill: #0261b1;
      }

      .st4 {
        fill: #023870;
      }
    </style>
  </defs>
  <g>
    <path class="st1" d="M46.73,87.42l1.57-.53c2.72-.91,6.83-3.64,6.58-6.71l-.13-1.57c.5.49,1.05.84,1.49,1.52,1.12,1.74,1.57,3.72,1.54,5.82-.03,2.62-1.02,4.91-3.01,6.63-4.26,3.65-12.36,5.31-17.81,5.67l-5.09.33-.04,3.14c-.92-.58-1.74-1.1-2.61-1.68l-6.24-4.14c-.83-.55-1.6-1.07-2.37-1.67l11.22-7.54.06,3.33c2.95-.11,5.77-.4,8.65-.9,2.18-.38,4.17-1.03,6.2-1.71Z"/>
    <path class="st3" d="M32.91,72.28c-1.99.6-3.97,1.43-5.52,3.02s-2.01,3.73-1.05,5.71c.12.24.18.5.14.72-2.14-1.51-3.49-3.84-3.72-6.54-.17-1.96,0-3.92.96-5.67,3.72-6.8,18.14-8.09,25.18-8.05l.15-3.19,10.61,7.06-10.64,7.54-.07-2.96c-3.53.05-6.91.44-10.35.91-2.05.28-3.83.89-5.7,1.46Z"/>
    <path class="st4" d="M32.91,72.28c-.18.31-.43.61-.35.97.07.33.32.67.69.86l4.86,2.52,7.14,3.71c1.42.74,2.62,1.52,2.19,3.1s-3.22,2.34-4.82,2.46c-4.38.34-8.66-.53-12.7-2.2-1.29-.54-2.37-1.22-3.44-1.97.04-.22-.03-.48-.14-.72-.96-1.98-.46-4.15,1.05-5.71s3.53-2.42,5.52-3.02Z"/>
    <path class="st0" d="M54.76,78.62l.13,1.57c.25,3.07-3.85,5.8-6.58,6.71l-1.57.53c.84-.53,1.7-1.02,2.39-1.83,1.13-1.33,1.26-3.16.52-4.76-1.45-3.13-5.69-5.08-8.79-6.2l-1.29-.56c4.71,0,11.75,1.18,15.2,4.55Z"/>
  </g>
  <g>
    <path class="st2" d="M72.14,89.66c-1.4,0-2.75-.19-4.04-.56-1.29-.38-2.33-.86-3.11-1.46l1.38-3.05c.73.53,1.62.97,2.65,1.31,1.03.34,2.07.51,3.12.51.8,0,1.45-.08,1.94-.25.49-.17.85-.39,1.09-.66.23-.28.35-.6.35-.96,0-.47-.18-.84-.55-1.11-.37-.28-.85-.5-1.46-.67-.61-.18-1.27-.34-1.99-.5-.72-.16-1.44-.35-2.16-.58-.73-.23-1.39-.53-2-.9s-1.09-.87-1.45-1.48-.54-1.37-.54-2.29c0-1,.27-1.91.8-2.74.53-.83,1.35-1.48,2.44-1.98,1.09-.49,2.46-.74,4.11-.74,1.1,0,2.19.13,3.26.4s2.01.65,2.81,1.15l-1.27,3.05c-.78-.45-1.59-.79-2.43-1.01s-1.63-.34-2.4-.34-1.44.09-1.92.26c-.48.18-.84.41-1.06.71-.23.3-.34.63-.34,1,0,.47.18.84.55,1.12.37.28.85.5,1.45.66.6.16,1.27.32,2,.48.73.16,1.46.35,2.17.59.72.23,1.38.53,1.98.89s1.09.84,1.46,1.45.56,1.36.56,2.26c0,.98-.27,1.88-.81,2.7-.54.82-1.36,1.47-2.46,1.97s-2.48.75-4.12.75Z"/>
    <path class="st2" d="M80.01,89.36l7.78-17.5h4l7.85,17.5h-4.25l-6.42-15.45h1.62l-6.42,15.45h-4.15ZM83.94,85.61l1.02-3.08h9.05l1.05,3.08h-11.12Z"/>
    <path class="st2" d="M109.66,89.66c-1.38,0-2.66-.22-3.83-.66-1.17-.44-2.17-1.07-3.03-1.89-.85-.82-1.51-1.78-1.99-2.88-.47-1.1-.71-2.31-.71-3.63s.24-2.52.71-3.62c.48-1.1,1.15-2.06,2.01-2.88.87-.82,1.88-1.45,3.05-1.89,1.17-.44,2.45-.66,3.85-.66,1.55,0,2.95.26,4.19.77,1.24.52,2.29,1.27,3.14,2.25l-2.58,2.4c-.65-.68-1.35-1.19-2.1-1.51-.75-.32-1.58-.49-2.47-.49-.83,0-1.6.14-2.3.41-.7.27-1.3.66-1.81,1.16-.51.5-.9,1.09-1.18,1.77-.27.68-.41,1.44-.41,2.27s.14,1.55.41,2.24c.28.69.67,1.29,1.18,1.79.51.5,1.11.89,1.8,1.18.69.28,1.45.42,2.29.42s1.58-.13,2.34-.4c.76-.27,1.5-.71,2.21-1.33l2.3,2.93c-.97.73-2.07,1.29-3.32,1.66s-2.5.56-3.75.56ZM116.74,87.43l-3.7-.55v-6.55h3.7v7.1Z"/>
    <path class="st2" d="M120.49,89.36v-17.5h4.08v17.5h-4.08Z"/>
    <path class="st2" d="M128.69,89.36v-17.5h4.08v14.2h8.72v3.3h-12.8Z"/>
  </g>
</svg>